<svg xmlns="http://www.w3.org/2000/svg" width="1200" height="900" viewBox="0 0 1200 900">
  <defs>
    <linearGradient id="g1" x1="0" y1="0" x2="1" y2="1">
      <stop offset="0" stop-color="#4f46e5"/>
      <stop offset="1" stop-color="#ec4899"/>
    </linearGradient>
    <linearGradient id="g2" x1="0" y1="1" x2="1" y2="0">
      <stop offset="0" stop-color="#14b8a6" stop-opacity="0.3"/>
      <stop offset="1" stop-color="#a78bfa" stop-opacity="0.3"/>
    </linearGradient>
  </defs>
  <rect width="1200" height="900" fill="#0f172a"/>
  <circle cx="1050" cy="120" r="220" fill="url(#g2)"/>
  <circle cx="160" cy="760" r="180" fill="url(#g2)"/>
  <rect x="150" y="160" width="900" height="580" rx="32" fill="#0b1224" stroke="#334155" stroke-width="2"/>
  <rect x="150" y="160" width="900" height="80" rx="32" fill="#101a33"/>
  <circle cx="200" cy="200" r="10" fill="#ef4444"/>
  <circle cx="230" cy="200" r="10" fill="#f59e0b"/>
  <circle cx="260" cy="200" r="10" fill="#10b981"/>
  <rect x="200" y="280" width="240" height="340" rx="16" fill="#111827" stroke="#374151" stroke-width="1.5"/>
  <rect x="470" y="280" width="520" height="170" rx="16" fill="#111827" stroke="#374151" stroke-width="1.5"/>
  <rect x="470" y="470" width="520" height="150" rx="16" fill="#111827" stroke="#374151" stroke-width="1.5"/>
  <rect x="220" y="310" width="200" height="16" rx="8" fill="#94a3b8"/>
  <rect x="220" y="350" width="160" height="12" rx="6" fill="#64748b"/>
  <rect x="220" y="380" width="160" height="12" rx="6" fill="#64748b"/>
  <rect x="500" y="310" width="240" height="16" rx="8" fill="#94a3b8"/>
  <rect x="500" y="350" width="420" height="12" rx="6" fill="#64748b"/>
  <rect x="500" y="380" width="380" height="12" rx="6" fill="#64748b"/>
  <rect x="500" y="510" width="280" height="16" rx="8" fill="#94a3b8"/>
  <rect x="500" y="550" width="420" height="12" rx="6" fill="#64748b"/>
  <rect x="500" y="580" width="360" height="12" rx="6" fill="#64748b"/>
  <text x="180" y="120" fill="url(#g1)" font-family="Poppins, Arial, sans-serif" font-size="64" font-weight="800">AImpact Dashboard</text>
</svg>
