<svg xmlns="http://www.w3.org/2000/svg" width="600" height="400" viewBox="0 0 600 400">
  <rect x="40" y="90" width="140" height="90" rx="12" fill="none" stroke="#4f46e5" stroke-width="3"/>
  <rect x="230" y="90" width="140" height="90" rx="12" fill="none" stroke="#06b6d4" stroke-width="3"/>
  <rect x="420" y="90" width="140" height="90" rx="12" fill="none" stroke="#ec4899" stroke-width="3"/>
  <circle cx="110" cy="135" r="16" fill="#4f46e5"/>
  <circle cx="300" cy="135" r="16" fill="#06b6d4"/>
  <circle cx="490" cy="135" r="16" fill="#ec4899"/>
  <line x1="180" y1="135" x2="230" y2="135" stroke="#64748b" stroke-width="3"/>
  <polygon points="230,135 220,130 220,140" fill="#64748b"/>
  <line x1="370" y1="135" x2="420" y2="135" stroke="#64748b" stroke-width="3"/>
  <polygon points="420,135 410,130 410,140" fill="#64748b"/>
  <rect x="90" y="230" width="420" height="60" rx="10" fill="none" stroke="#334155" stroke-width="2"/>
  <circle cx="120" cy="260" r="6" fill="#4f46e5"/>
  <circle cx="140" cy="260" r="6" fill="#06b6d4"/>
  <circle cx="160" cy="260" r="6" fill="#ec4899"/>
</svg>
